{"title":"Escape from Tomorrow 2013 UNRATED HDRip x264 AC3-UNiQUE","uid":9039576,"size":1286744889,"categoryP":"video","categoryS":"movies","magnet":"?xt=urn:btih:46b3630b5b9702a93af1bfbbdba84583936c60db&amp;dn=Escape+from+Tomorrow+2013+UNRATED+HDRip+x264+AC3-UNiQUE&amp;tr=udp%3A%2F%2Ftracker.openbittorrent.com%3A80&amp;tr=udp%3A%2F%2Fopen.demonii.com%3A1337&amp;tr=udp%3A%2F%2Ftracker.coppersurfer.tk%3A6969&amp;tr=udp%3A%2F%2Fexodus.desync.com%3A6969","seeders":6,"leechers":4,"uploader":"HeroMaster","files":-1,"time":1381591090,"description":"Escape from Tomorrow 2013 UNRATED HDRip x264 AC3-UNiQUE\n\n\nSource: Itunes 720p\n\n\nGeneral\n\nFormat: Matroska\nFormat version: Version 2\nFile size: 1.20 GiB\nDuration: 1h 30mn\nOverall bit rate mode: Variable\nOverall bit rate: 1 904 Kbps\nEncoded date: UTC 2013-10-12 03:47:39\n\n\nIMDB: http://www.imdb.com/title/tt2187884/\n\n\nVideo\n\nID: 1\nFormat: AVC\nFormat/Info: Advanced Video Codec\nFormat profile: &lt;a class=&quot;__cf_email__&quot; href=&quot;/cdn-cgi/l/email-protection&quot; data-cfemail=&quot;8ec6e7e9e6cec2baa0bf&quot;&gt;[email&amp;#160;protected]&lt;/a&gt;&lt;script cf-hash='f9e31' type=&quot;text/javascript&quot;&gt;\n/* &lt;![CDATA[ */!function(){try{var t=&quot;currentScript&quot;in document?document.currentScript:function(){for(var t=document.getElementsByTagName(&quot;script&quot;),e=t.length;e--;)if(t[e].getAttribute(&quot;cf-hash&quot;))return t[e]}();if(t&amp;&amp;t.previousSibling){var e,r,n,i,c=t.previousSibling,a=c.getAttribute(&quot;data-cfemail&quot;);if(a){for(e=&quot;&quot;,r=parseInt(a.substr(0,2),16),n=2;a.length-n;n+=2)i=parseInt(a.substr(n,2),16)^r,e+=String.fromCharCode(i);e=document.createTextNode(e),c.parentNode.replaceChild(e,c)}}}catch(u){}}();/* ]]&gt; */&lt;/script&gt;\nFormat settings, CABAC: Yes\nFormat settings, ReFrames: 3 frames\nCodec ID: V_MPEG4/ISO/AVC\nDuration: 1h 30mn\nBit rate mode: Variable\nBit rate: 1 518 Kbps\nMaximum bit rate: 40.0 Mbps\nWidth: 720 pixels\nHeight: 384 pixels\nDisplay aspect ratio: 1.85:1\nFrame rate: 24.000 fps\nColor space: YUV\nChroma subsampling: 4:2:0\nBit depth: 8 bits\nScan type: Progressive\nBits/(Pixel*Frame): 0.229\nStream size: 955 MiB (78%)\nWriting library: x264 core 138 r2358 9e941d1\nDefault: Yes\nForced: No\n\n\nAudio\n\nID: 2\nFormat: AC-3\nFormat/Info: Audio Coding 3\nMode extension: CM (complete main)\nFormat settings, Endianness: Big\nCodec ID: A_AC3\nDuration: 1h 30mn\nBit rate mode: Constant\nBit rate: 384 Kbps\nChannel(s): 6 channels\nChannel positions: Front: L C R, Side: L R, LFE\nSampling rate: 48.0 KHz\nBit depth: 16 bits\nCompression mode: Lossy\nStream size: 248 MiB (20%)\nLanguage: English\nDefault: Yes\nForced: No\n\n\nText\n\nID: 3\nFormat: UTF-8\nCodec ID: S_TEXT/UTF8\nCodec ID/Info: UTF-8 Plain Text\nLanguage: English\nDefault: No\nForced: No\n\n\nPoster:\n\n &lt;a href=&quot;\nhttp://i.imgur.com/m5Gbrnd.jpg&quot; rel=&quot;nofollow&quot; target=&quot;_NEW&quot;&gt;\nhttp://i.imgur.com/m5Gbrnd.jpg&lt;/a&gt;\n\n\nScreenshots:\n\n &lt;a href=&quot;\nhttp://i.imgur.com/ApVJ23t.jpg&quot; rel=&quot;nofollow&quot; target=&quot;_NEW&quot;&gt;\nhttp://i.imgur.com/ApVJ23t.jpg&lt;/a&gt;\n\n\nSEED AND ENJOY!","torrent":{"xt":"urn:btih:46b3630b5b9702a93af1bfbbdba84583936c60db","amp;dn":"Escape+from+Tomorrow+2013+UNRATED+HDRip+x264+AC3-UNiQUE","amp;tr":["udp%3A%2F%2Ftracker.openbittorrent.com%3A80","udp%3A%2F%2Fopen.demonii.com%3A1337","udp%3A%2F%2Ftracker.coppersurfer.tk%3A6969","udp%3A%2F%2Fexodus.desync.com%3A6969"],"infoHash":"46b3630b5b9702a93af1bfbbdba84583936c60db","infoHashBuffer":{"type":"Buffer","data":[70,179,99,11,91,151,2,169,58,241,191,187,219,168,69,131,147,108,96,219]},"announce":[],"urlList":[]}}